<mxfile host="app.diagrams.net" modified="2024-04-30T10:22:37.505Z" agent="Mozilla/5.0 (Windows NT 10.0; Win64; x64) AppleWebKit/537.36 (KHTML, like Gecko) Chrome/124.0.0.0 Safari/537.36" etag="JhzLXxXyemTYw9ykyMvk" version="24.0.7" type="device">
  <diagram name="PÃ¡gina-1" id="el1YHidlCXBiOxKuGjxS">
    <mxGraphModel dx="3025" dy="1945" grid="0" gridSize="10" guides="1" tooltips="1" connect="1" arrows="1" fold="1" page="0" pageScale="1" pageWidth="827" pageHeight="1169" background="#ffffff" math="0" shadow="0">
      <root>
        <mxCell id="0" />
        <mxCell id="1" parent="0" />
        <mxCell id="NneCRc7rdDqHOtau7HOk-14" value="" style="shape=cylinder3;whiteSpace=wrap;html=1;boundedLbl=1;backgroundOutline=1;size=15;rotation=-90;fillColor=#eeeeee;strokeColor=#36393d;" vertex="1" parent="1">
          <mxGeometry x="601" y="662" width="60" height="242" as="geometry" />
        </mxCell>
        <mxCell id="NneCRc7rdDqHOtau7HOk-15" value="" style="shape=cylinder3;whiteSpace=wrap;html=1;boundedLbl=1;backgroundOutline=1;size=15;rotation=91;fillColor=#eeeeee;strokeColor=#36393d;" vertex="1" parent="1">
          <mxGeometry x="601" y="745" width="60" height="242" as="geometry" />
        </mxCell>
        <mxCell id="NneCRc7rdDqHOtau7HOk-24" value="" style="shape=cylinder3;whiteSpace=wrap;html=1;boundedLbl=1;backgroundOutline=1;size=15;fillColor=#d5e8d4;gradientColor=#97d077;strokeColor=#82b366;" vertex="1" parent="1">
          <mxGeometry x="-11.5" y="728" width="112.5" height="150" as="geometry" />
        </mxCell>
        <mxCell id="NneCRc7rdDqHOtau7HOk-25" value="" style="shape=cylinder3;whiteSpace=wrap;html=1;boundedLbl=1;backgroundOutline=1;size=15;fillColor=#dae8fc;gradientColor=#7ea6e0;strokeColor=#6c8ebf;" vertex="1" parent="1">
          <mxGeometry x="1358.88" y="742" width="112.5" height="150" as="geometry" />
        </mxCell>
        <mxCell id="NneCRc7rdDqHOtau7HOk-27" value="" style="shape=image;verticalLabelPosition=bottom;labelBackgroundColor=default;verticalAlign=top;aspect=fixed;imageAspect=0;image=https://upload.wikimedia.org/wikipedia/commons/thumb/9/93/MongoDB_Logo.svg/2560px-MongoDB_Logo.svg.png;" vertex="1" parent="1">
          <mxGeometry x="-28" y="875" width="140.43" height="37.8" as="geometry" />
        </mxCell>
        <mxCell id="NneCRc7rdDqHOtau7HOk-28" value="" style="shape=image;verticalLabelPosition=bottom;labelBackgroundColor=default;verticalAlign=top;aspect=fixed;imageAspect=0;image=https://cdn.icon-icons.com/icons2/2415/PNG/512/postgresql_plain_wordmark_logo_icon_146390.png;" vertex="1" parent="1">
          <mxGeometry x="1355.13" y="909" width="120" height="120" as="geometry" />
        </mxCell>
        <mxCell id="NneCRc7rdDqHOtau7HOk-29" value="" style="group" vertex="1" connectable="0" parent="1">
          <mxGeometry x="-194" y="30" width="842" height="625" as="geometry" />
        </mxCell>
        <mxCell id="NneCRc7rdDqHOtau7HOk-4" value="" style="shape=hexagon;perimeter=hexagonPerimeter2;whiteSpace=wrap;html=1;fixedSize=1;fillColor=#f0a30a;strokeColor=#BD7000;fontColor=#000000;" vertex="1" parent="NneCRc7rdDqHOtau7HOk-29">
          <mxGeometry x="161.82" y="-94" width="544.18" height="719" as="geometry" />
        </mxCell>
        <mxCell id="NneCRc7rdDqHOtau7HOk-5" value="" style="shape=hexagon;perimeter=hexagonPerimeter2;whiteSpace=wrap;html=1;fixedSize=1;fillColor=#f8cecc;strokeColor=#b85450;" vertex="1" parent="NneCRc7rdDqHOtau7HOk-29">
          <mxGeometry x="232.87" y="55" width="393.13" height="391" as="geometry" />
        </mxCell>
        <mxCell id="NneCRc7rdDqHOtau7HOk-6" value="" style="shape=hexagon;perimeter=hexagonPerimeter2;whiteSpace=wrap;html=1;fixedSize=1;fillColor=#dae8fc;strokeColor=#6c8ebf;" vertex="1" parent="NneCRc7rdDqHOtau7HOk-29">
          <mxGeometry x="306.41" y="194" width="246.04" height="160.02" as="geometry" />
        </mxCell>
        <mxCell id="NneCRc7rdDqHOtau7HOk-8" value="domain" style="text;html=1;align=center;verticalAlign=middle;whiteSpace=wrap;rounded=0;" vertex="1" parent="NneCRc7rdDqHOtau7HOk-29">
          <mxGeometry x="456.00250000000005" y="193.997707641196" width="78.9375" height="51.22923588039867" as="geometry" />
        </mxCell>
        <mxCell id="NneCRc7rdDqHOtau7HOk-9" value="Application" style="text;html=1;align=center;verticalAlign=middle;whiteSpace=wrap;rounded=0;" vertex="1" parent="NneCRc7rdDqHOtau7HOk-29">
          <mxGeometry x="525.0025" y="59.99677740863788" width="78.9375" height="51.22923588039867" as="geometry" />
        </mxCell>
        <mxCell id="NneCRc7rdDqHOtau7HOk-12" value="infrastructure" style="text;html=1;align=center;verticalAlign=middle;whiteSpace=wrap;rounded=0;" vertex="1" parent="NneCRc7rdDqHOtau7HOk-29">
          <mxGeometry x="603.9384375000001" y="573.7707641196013" width="78.9375" height="51.22923588039867" as="geometry" />
        </mxCell>
        <mxCell id="NneCRc7rdDqHOtau7HOk-38" style="edgeStyle=orthogonalEdgeStyle;rounded=0;orthogonalLoop=1;jettySize=auto;html=1;exitX=0.5;exitY=1;exitDx=0;exitDy=0;entryX=0.25;entryY=0;entryDx=0;entryDy=0;" edge="1" parent="NneCRc7rdDqHOtau7HOk-29" source="NneCRc7rdDqHOtau7HOk-35" target="NneCRc7rdDqHOtau7HOk-36">
          <mxGeometry relative="1" as="geometry" />
        </mxCell>
        <mxCell id="NneCRc7rdDqHOtau7HOk-40" style="edgeStyle=orthogonalEdgeStyle;rounded=0;orthogonalLoop=1;jettySize=auto;html=1;exitX=0.75;exitY=1;exitDx=0;exitDy=0;entryX=0.5;entryY=0;entryDx=0;entryDy=0;" edge="1" parent="NneCRc7rdDqHOtau7HOk-29" source="NneCRc7rdDqHOtau7HOk-35" target="NneCRc7rdDqHOtau7HOk-37">
          <mxGeometry relative="1" as="geometry" />
        </mxCell>
        <mxCell id="NneCRc7rdDqHOtau7HOk-35" value="Account event store" style="rounded=1;whiteSpace=wrap;html=1;" vertex="1" parent="NneCRc7rdDqHOtau7HOk-29">
          <mxGeometry x="371" y="409" width="120" height="60" as="geometry" />
        </mxCell>
        <mxCell id="NneCRc7rdDqHOtau7HOk-36" value="AccountMongoRepository" style="rounded=1;whiteSpace=wrap;html=1;" vertex="1" parent="NneCRc7rdDqHOtau7HOk-29">
          <mxGeometry x="203" y="506" width="189.13" height="60" as="geometry" />
        </mxCell>
        <mxCell id="NneCRc7rdDqHOtau7HOk-37" value="KafkaEventProducer" style="rounded=1;whiteSpace=wrap;html=1;" vertex="1" parent="NneCRc7rdDqHOtau7HOk-29">
          <mxGeometry x="429" y="506" width="189.13" height="60" as="geometry" />
        </mxCell>
        <mxCell id="NneCRc7rdDqHOtau7HOk-51" style="edgeStyle=orthogonalEdgeStyle;rounded=0;orthogonalLoop=1;jettySize=auto;html=1;exitX=0.75;exitY=1;exitDx=0;exitDy=0;entryX=0.25;entryY=0;entryDx=0;entryDy=0;" edge="1" parent="NneCRc7rdDqHOtau7HOk-29" source="NneCRc7rdDqHOtau7HOk-47" target="NneCRc7rdDqHOtau7HOk-50">
          <mxGeometry relative="1" as="geometry" />
        </mxCell>
        <mxCell id="NneCRc7rdDqHOtau7HOk-47" value="AccountMongoRepository" style="rounded=1;whiteSpace=wrap;html=1;" vertex="1" parent="NneCRc7rdDqHOtau7HOk-29">
          <mxGeometry x="237" y="-42" width="189.13" height="60" as="geometry" />
        </mxCell>
        <mxCell id="NneCRc7rdDqHOtau7HOk-58" style="edgeStyle=orthogonalEdgeStyle;rounded=0;orthogonalLoop=1;jettySize=auto;html=1;exitX=0.5;exitY=1;exitDx=0;exitDy=0;entryX=0.5;entryY=0;entryDx=0;entryDy=0;" edge="1" parent="NneCRc7rdDqHOtau7HOk-29" source="NneCRc7rdDqHOtau7HOk-50" target="NneCRc7rdDqHOtau7HOk-57">
          <mxGeometry relative="1" as="geometry" />
        </mxCell>
        <mxCell id="NneCRc7rdDqHOtau7HOk-50" value="AccountInterfaceAdapter" style="rounded=1;whiteSpace=wrap;html=1;" vertex="1" parent="NneCRc7rdDqHOtau7HOk-29">
          <mxGeometry x="329.07" y="34" width="189.13" height="60" as="geometry" />
        </mxCell>
        <mxCell id="NneCRc7rdDqHOtau7HOk-53" style="edgeStyle=orthogonalEdgeStyle;rounded=0;orthogonalLoop=1;jettySize=auto;html=1;exitX=0.25;exitY=1;exitDx=0;exitDy=0;entryX=0.75;entryY=0;entryDx=0;entryDy=0;" edge="1" parent="NneCRc7rdDqHOtau7HOk-29" source="NneCRc7rdDqHOtau7HOk-52" target="NneCRc7rdDqHOtau7HOk-50">
          <mxGeometry relative="1" as="geometry" />
        </mxCell>
        <mxCell id="NneCRc7rdDqHOtau7HOk-52" value="AccountCommandsController" style="rounded=1;whiteSpace=wrap;html=1;" vertex="1" parent="NneCRc7rdDqHOtau7HOk-29">
          <mxGeometry x="445" y="-42" width="189.13" height="60" as="geometry" />
        </mxCell>
        <mxCell id="NneCRc7rdDqHOtau7HOk-61" style="edgeStyle=orthogonalEdgeStyle;rounded=0;orthogonalLoop=1;jettySize=auto;html=1;exitX=0.5;exitY=1;exitDx=0;exitDy=0;entryX=0.5;entryY=0;entryDx=0;entryDy=0;" edge="1" parent="NneCRc7rdDqHOtau7HOk-29" source="NneCRc7rdDqHOtau7HOk-57" target="NneCRc7rdDqHOtau7HOk-59">
          <mxGeometry relative="1" as="geometry" />
        </mxCell>
        <mxCell id="NneCRc7rdDqHOtau7HOk-57" value="AccountCommandHandler" style="rounded=1;whiteSpace=wrap;html=1;" vertex="1" parent="NneCRc7rdDqHOtau7HOk-29">
          <mxGeometry x="331" y="119" width="189.13" height="60" as="geometry" />
        </mxCell>
        <mxCell id="NneCRc7rdDqHOtau7HOk-60" style="edgeStyle=orthogonalEdgeStyle;rounded=0;orthogonalLoop=1;jettySize=auto;html=1;exitX=0.5;exitY=1;exitDx=0;exitDy=0;entryX=0.5;entryY=0;entryDx=0;entryDy=0;" edge="1" parent="NneCRc7rdDqHOtau7HOk-29" source="NneCRc7rdDqHOtau7HOk-59" target="NneCRc7rdDqHOtau7HOk-35">
          <mxGeometry relative="1" as="geometry" />
        </mxCell>
        <mxCell id="NneCRc7rdDqHOtau7HOk-59" value="AccountEventSourceHandler" style="rounded=1;whiteSpace=wrap;html=1;" vertex="1" parent="NneCRc7rdDqHOtau7HOk-29">
          <mxGeometry x="334.87" y="230" width="189.13" height="60" as="geometry" />
        </mxCell>
        <mxCell id="NneCRc7rdDqHOtau7HOk-128" value="" style="endArrow=none;html=1;rounded=0;strokeWidth=6;" edge="1" parent="NneCRc7rdDqHOtau7HOk-29">
          <mxGeometry width="50" height="50" relative="1" as="geometry">
            <mxPoint x="618.13" y="249.25" as="sourcePoint" />
            <mxPoint x="761" y="249" as="targetPoint" />
          </mxGeometry>
        </mxCell>
        <mxCell id="NneCRc7rdDqHOtau7HOk-30" value="" style="group" vertex="1" connectable="0" parent="1">
          <mxGeometry x="763" y="30" width="910" height="663" as="geometry" />
        </mxCell>
        <mxCell id="NneCRc7rdDqHOtau7HOk-16" value="" style="shape=hexagon;perimeter=hexagonPerimeter2;whiteSpace=wrap;html=1;fixedSize=1;fillColor=#f0a30a;strokeColor=#BD7000;fontColor=#000000;" vertex="1" parent="NneCRc7rdDqHOtau7HOk-30">
          <mxGeometry x="162.4" y="-100" width="747.6" height="763" as="geometry" />
        </mxCell>
        <mxCell id="NneCRc7rdDqHOtau7HOk-17" value="" style="shape=hexagon;perimeter=hexagonPerimeter2;whiteSpace=wrap;html=1;fixedSize=1;fillColor=#f8cecc;strokeColor=#b85450;" vertex="1" parent="NneCRc7rdDqHOtau7HOk-30">
          <mxGeometry x="233.7" y="88.54" width="619.3" height="400.46" as="geometry" />
        </mxCell>
        <mxCell id="NneCRc7rdDqHOtau7HOk-21" value="Application" style="text;html=1;align=center;verticalAlign=middle;whiteSpace=wrap;rounded=0;" vertex="1" parent="NneCRc7rdDqHOtau7HOk-30">
          <mxGeometry x="762.00125" y="72.99667774086379" width="79.21875" height="53.12292358803987" as="geometry" />
        </mxCell>
        <mxCell id="NneCRc7rdDqHOtau7HOk-23" value="infrastructure" style="text;html=1;align=center;verticalAlign=middle;whiteSpace=wrap;rounded=0;" vertex="1" parent="NneCRc7rdDqHOtau7HOk-30">
          <mxGeometry x="808.00296875" y="606.99707641196" width="79.21875" height="53.12292358803987" as="geometry" />
        </mxCell>
        <mxCell id="NneCRc7rdDqHOtau7HOk-79" style="edgeStyle=orthogonalEdgeStyle;rounded=0;orthogonalLoop=1;jettySize=auto;html=1;exitX=0.5;exitY=1;exitDx=0;exitDy=0;entryX=0.5;entryY=0;entryDx=0;entryDy=0;" edge="1" parent="NneCRc7rdDqHOtau7HOk-30" source="NneCRc7rdDqHOtau7HOk-42" target="NneCRc7rdDqHOtau7HOk-76">
          <mxGeometry relative="1" as="geometry" />
        </mxCell>
        <mxCell id="NneCRc7rdDqHOtau7HOk-42" value="AccountEventConsumer" style="rounded=1;whiteSpace=wrap;html=1;" vertex="1" parent="NneCRc7rdDqHOtau7HOk-30">
          <mxGeometry x="217" y="-33" width="189.13" height="60" as="geometry" />
        </mxCell>
        <mxCell id="NneCRc7rdDqHOtau7HOk-44" value="AccountJpaRepository" style="rounded=1;whiteSpace=wrap;html=1;" vertex="1" parent="NneCRc7rdDqHOtau7HOk-30">
          <mxGeometry x="556.23" y="567" width="189.13" height="60" as="geometry" />
        </mxCell>
        <mxCell id="NneCRc7rdDqHOtau7HOk-22" value="interface" style="text;html=1;align=center;verticalAlign=middle;whiteSpace=wrap;rounded=0;" vertex="1" parent="NneCRc7rdDqHOtau7HOk-30">
          <mxGeometry x="592.1312499999999" y="-108" width="79.21875" height="53.12292358803987" as="geometry" />
        </mxCell>
        <mxCell id="NneCRc7rdDqHOtau7HOk-73" value="KafkaEventProducer" style="rounded=1;whiteSpace=wrap;html=1;" vertex="1" parent="NneCRc7rdDqHOtau7HOk-30">
          <mxGeometry x="285" y="567" width="189.13" height="60" as="geometry" />
        </mxCell>
        <mxCell id="NneCRc7rdDqHOtau7HOk-85" style="edgeStyle=orthogonalEdgeStyle;rounded=0;orthogonalLoop=1;jettySize=auto;html=1;exitX=0.75;exitY=1;exitDx=0;exitDy=0;entryX=0.25;entryY=0;entryDx=0;entryDy=0;" edge="1" parent="NneCRc7rdDqHOtau7HOk-30" source="NneCRc7rdDqHOtau7HOk-76" target="NneCRc7rdDqHOtau7HOk-83">
          <mxGeometry relative="1" as="geometry" />
        </mxCell>
        <mxCell id="NneCRc7rdDqHOtau7HOk-76" value="&lt;font style=&quot;font-size: 8px;&quot;&gt;AccountEventsInterfaceAdapter&lt;/font&gt;" style="rounded=1;whiteSpace=wrap;html=1;" vertex="1" parent="NneCRc7rdDqHOtau7HOk-30">
          <mxGeometry x="264" y="66.12" width="149" height="60" as="geometry" />
        </mxCell>
        <mxCell id="NneCRc7rdDqHOtau7HOk-86" style="edgeStyle=orthogonalEdgeStyle;rounded=0;orthogonalLoop=1;jettySize=auto;html=1;exitX=0.25;exitY=1;exitDx=0;exitDy=0;entryX=0.75;entryY=0;entryDx=0;entryDy=0;" edge="1" parent="NneCRc7rdDqHOtau7HOk-30" source="NneCRc7rdDqHOtau7HOk-77" target="NneCRc7rdDqHOtau7HOk-83">
          <mxGeometry relative="1" as="geometry" />
        </mxCell>
        <mxCell id="NneCRc7rdDqHOtau7HOk-77" value="&lt;font style=&quot;font-size: 8px;&quot;&gt;AccountReadInterfaceAdapter&lt;/font&gt;" style="rounded=1;whiteSpace=wrap;html=1;" vertex="1" parent="NneCRc7rdDqHOtau7HOk-30">
          <mxGeometry x="456.41" y="66.12" width="145.59" height="60" as="geometry" />
        </mxCell>
        <mxCell id="NneCRc7rdDqHOtau7HOk-87" style="edgeStyle=orthogonalEdgeStyle;rounded=0;orthogonalLoop=1;jettySize=auto;html=1;exitX=0.5;exitY=1;exitDx=0;exitDy=0;entryX=0.5;entryY=0;entryDx=0;entryDy=0;" edge="1" parent="NneCRc7rdDqHOtau7HOk-30" source="NneCRc7rdDqHOtau7HOk-78" target="NneCRc7rdDqHOtau7HOk-84">
          <mxGeometry relative="1" as="geometry">
            <Array as="points">
              <mxPoint x="644" y="126" />
              <mxPoint x="644" y="146" />
              <mxPoint x="622" y="146" />
            </Array>
          </mxGeometry>
        </mxCell>
        <mxCell id="NneCRc7rdDqHOtau7HOk-78" value="&lt;font style=&quot;font-size: 11px;&quot;&gt;DatabaseInterfaceAdapter&lt;/font&gt;" style="rounded=1;whiteSpace=wrap;html=1;" vertex="1" parent="NneCRc7rdDqHOtau7HOk-30">
          <mxGeometry x="619" y="66.12" width="150.46" height="60" as="geometry" />
        </mxCell>
        <mxCell id="NneCRc7rdDqHOtau7HOk-82" value="" style="endArrow=none;dashed=1;html=1;dashPattern=1 3;strokeWidth=2;rounded=0;" edge="1" parent="NneCRc7rdDqHOtau7HOk-30" target="NneCRc7rdDqHOtau7HOk-18">
          <mxGeometry width="50" height="50" relative="1" as="geometry">
            <mxPoint x="782" y="296.3846179401993" as="sourcePoint" />
            <mxPoint x="1801" y="296" as="targetPoint" />
          </mxGeometry>
        </mxCell>
        <mxCell id="NneCRc7rdDqHOtau7HOk-18" value="" style="shape=hexagon;perimeter=hexagonPerimeter2;whiteSpace=wrap;html=1;fixedSize=1;fillColor=#dae8fc;strokeColor=#6c8ebf;" vertex="1" parent="NneCRc7rdDqHOtau7HOk-30">
          <mxGeometry x="298.55" y="219" width="484.05" height="216.03" as="geometry" />
        </mxCell>
        <mxCell id="NneCRc7rdDqHOtau7HOk-121" style="edgeStyle=orthogonalEdgeStyle;rounded=0;orthogonalLoop=1;jettySize=auto;html=1;exitX=0.5;exitY=1;exitDx=0;exitDy=0;entryX=0.5;entryY=0;entryDx=0;entryDy=0;" edge="1" parent="NneCRc7rdDqHOtau7HOk-30" source="NneCRc7rdDqHOtau7HOk-83" target="NneCRc7rdDqHOtau7HOk-119">
          <mxGeometry relative="1" as="geometry" />
        </mxCell>
        <mxCell id="NneCRc7rdDqHOtau7HOk-123" style="edgeStyle=orthogonalEdgeStyle;rounded=0;orthogonalLoop=1;jettySize=auto;html=1;exitX=0.75;exitY=1;exitDx=0;exitDy=0;entryX=0.25;entryY=0;entryDx=0;entryDy=0;" edge="1" parent="NneCRc7rdDqHOtau7HOk-30" source="NneCRc7rdDqHOtau7HOk-83" target="NneCRc7rdDqHOtau7HOk-88">
          <mxGeometry relative="1" as="geometry" />
        </mxCell>
        <mxCell id="NneCRc7rdDqHOtau7HOk-83" value="&lt;font style=&quot;font-size: 11px;&quot;&gt;AccountEventsService&lt;/font&gt;" style="rounded=1;whiteSpace=wrap;html=1;" vertex="1" parent="NneCRc7rdDqHOtau7HOk-30">
          <mxGeometry x="358" y="145.56" width="145.59" height="60" as="geometry" />
        </mxCell>
        <mxCell id="NneCRc7rdDqHOtau7HOk-90" style="edgeStyle=orthogonalEdgeStyle;rounded=0;orthogonalLoop=1;jettySize=auto;html=1;exitX=0.5;exitY=1;exitDx=0;exitDy=0;entryX=0.5;entryY=0;entryDx=0;entryDy=0;" edge="1" parent="NneCRc7rdDqHOtau7HOk-30" source="NneCRc7rdDqHOtau7HOk-84" target="NneCRc7rdDqHOtau7HOk-88">
          <mxGeometry relative="1" as="geometry" />
        </mxCell>
        <mxCell id="NneCRc7rdDqHOtau7HOk-84" value="&lt;font style=&quot;font-size: 11px;&quot;&gt;AccountReadService&lt;/font&gt;" style="rounded=1;whiteSpace=wrap;html=1;" vertex="1" parent="NneCRc7rdDqHOtau7HOk-30">
          <mxGeometry x="549" y="149" width="145.59" height="60" as="geometry" />
        </mxCell>
        <mxCell id="NneCRc7rdDqHOtau7HOk-20" value="domain" style="text;html=1;align=center;verticalAlign=middle;whiteSpace=wrap;rounded=0;" vertex="1" parent="NneCRc7rdDqHOtau7HOk-30">
          <mxGeometry x="688.00125" y="212.9987707641196" width="79.21875" height="53.12292358803987" as="geometry" />
        </mxCell>
        <mxCell id="NneCRc7rdDqHOtau7HOk-91" style="edgeStyle=orthogonalEdgeStyle;rounded=0;orthogonalLoop=1;jettySize=auto;html=1;exitX=0.5;exitY=1;exitDx=0;exitDy=0;entryX=0.5;entryY=0;entryDx=0;entryDy=0;" edge="1" parent="NneCRc7rdDqHOtau7HOk-30" source="NneCRc7rdDqHOtau7HOk-88" target="NneCRc7rdDqHOtau7HOk-89">
          <mxGeometry relative="1" as="geometry" />
        </mxCell>
        <mxCell id="NneCRc7rdDqHOtau7HOk-88" value="&lt;font style=&quot;font-size: 11px;&quot;&gt;AccountReadRepository&lt;/font&gt;" style="rounded=1;whiteSpace=wrap;html=1;" vertex="1" parent="NneCRc7rdDqHOtau7HOk-30">
          <mxGeometry x="572" y="320" width="145.59" height="60" as="geometry" />
        </mxCell>
        <mxCell id="NneCRc7rdDqHOtau7HOk-92" style="edgeStyle=orthogonalEdgeStyle;rounded=0;orthogonalLoop=1;jettySize=auto;html=1;entryX=0.5;entryY=0;entryDx=0;entryDy=0;" edge="1" parent="NneCRc7rdDqHOtau7HOk-30" source="NneCRc7rdDqHOtau7HOk-89" target="NneCRc7rdDqHOtau7HOk-44">
          <mxGeometry relative="1" as="geometry" />
        </mxCell>
        <mxCell id="NneCRc7rdDqHOtau7HOk-89" value="&lt;font style=&quot;font-size: 11px;&quot;&gt;AccountReadRepositoryJpaAdapter&lt;/font&gt;" style="rounded=1;whiteSpace=wrap;html=1;" vertex="1" parent="NneCRc7rdDqHOtau7HOk-30">
          <mxGeometry x="578" y="457" width="196" height="60" as="geometry" />
        </mxCell>
        <mxCell id="NneCRc7rdDqHOtau7HOk-124" style="edgeStyle=orthogonalEdgeStyle;rounded=0;orthogonalLoop=1;jettySize=auto;html=1;exitX=0.5;exitY=1;exitDx=0;exitDy=0;entryX=0.5;entryY=0;entryDx=0;entryDy=0;" edge="1" parent="NneCRc7rdDqHOtau7HOk-30" source="NneCRc7rdDqHOtau7HOk-119" target="NneCRc7rdDqHOtau7HOk-120">
          <mxGeometry relative="1" as="geometry" />
        </mxCell>
        <mxCell id="NneCRc7rdDqHOtau7HOk-119" value="&lt;font style=&quot;font-size: 11px;&quot;&gt;DbEventPublisher&lt;/font&gt;" style="rounded=1;whiteSpace=wrap;html=1;" vertex="1" parent="NneCRc7rdDqHOtau7HOk-30">
          <mxGeometry x="356" y="320" width="145.59" height="60" as="geometry" />
        </mxCell>
        <mxCell id="NneCRc7rdDqHOtau7HOk-125" style="edgeStyle=orthogonalEdgeStyle;rounded=0;orthogonalLoop=1;jettySize=auto;html=1;exitX=0.5;exitY=1;exitDx=0;exitDy=0;entryX=0.5;entryY=0;entryDx=0;entryDy=0;" edge="1" parent="NneCRc7rdDqHOtau7HOk-30" source="NneCRc7rdDqHOtau7HOk-120" target="NneCRc7rdDqHOtau7HOk-73">
          <mxGeometry relative="1" as="geometry" />
        </mxCell>
        <mxCell id="NneCRc7rdDqHOtau7HOk-120" value="&lt;font style=&quot;font-size: 11px;&quot;&gt;DbEventPublisherKafkaAdapter&lt;/font&gt;" style="rounded=1;whiteSpace=wrap;html=1;" vertex="1" parent="NneCRc7rdDqHOtau7HOk-30">
          <mxGeometry x="286" y="457" width="177.59" height="60" as="geometry" />
        </mxCell>
        <mxCell id="NneCRc7rdDqHOtau7HOk-129" value="" style="endArrow=none;html=1;rounded=0;entryX=0;entryY=0.5;entryDx=0;entryDy=0;strokeWidth=6;" edge="1" parent="NneCRc7rdDqHOtau7HOk-30">
          <mxGeometry width="50" height="50" relative="1" as="geometry">
            <mxPoint x="82" y="277" as="sourcePoint" />
            <mxPoint x="237" y="277" as="targetPoint" />
          </mxGeometry>
        </mxCell>
        <mxCell id="NneCRc7rdDqHOtau7HOk-31" value="&lt;font style=&quot;font-size: 55px;&quot;&gt;Command&lt;/font&gt;" style="text;html=1;align=center;verticalAlign=middle;whiteSpace=wrap;rounded=0;" vertex="1" parent="1">
          <mxGeometry x="-206" y="-126" width="60" height="30" as="geometry" />
        </mxCell>
        <mxCell id="NneCRc7rdDqHOtau7HOk-33" value="&lt;font style=&quot;font-size: 55px;&quot;&gt;Query&lt;/font&gt;" style="text;html=1;align=center;verticalAlign=middle;whiteSpace=wrap;rounded=0;" vertex="1" parent="1">
          <mxGeometry x="1772" y="-108" width="60" height="30" as="geometry" />
        </mxCell>
        <mxCell id="NneCRc7rdDqHOtau7HOk-39" style="edgeStyle=orthogonalEdgeStyle;rounded=0;orthogonalLoop=1;jettySize=auto;html=1;exitX=0.25;exitY=1;exitDx=0;exitDy=0;entryX=0.5;entryY=0;entryDx=0;entryDy=0;entryPerimeter=0;" edge="1" parent="1" source="NneCRc7rdDqHOtau7HOk-36" target="NneCRc7rdDqHOtau7HOk-24">
          <mxGeometry relative="1" as="geometry" />
        </mxCell>
        <mxCell id="NneCRc7rdDqHOtau7HOk-41" style="edgeStyle=orthogonalEdgeStyle;rounded=0;orthogonalLoop=1;jettySize=auto;html=1;exitX=0.5;exitY=1;exitDx=0;exitDy=0;entryX=0.5;entryY=0;entryDx=0;entryDy=0;entryPerimeter=0;" edge="1" parent="1" source="NneCRc7rdDqHOtau7HOk-37" target="NneCRc7rdDqHOtau7HOk-14">
          <mxGeometry relative="1" as="geometry" />
        </mxCell>
        <mxCell id="NneCRc7rdDqHOtau7HOk-45" style="edgeStyle=orthogonalEdgeStyle;rounded=0;orthogonalLoop=1;jettySize=auto;html=1;exitX=0.5;exitY=1;exitDx=0;exitDy=0;entryX=0.5;entryY=0;entryDx=0;entryDy=0;entryPerimeter=0;" edge="1" parent="1" source="NneCRc7rdDqHOtau7HOk-44" target="NneCRc7rdDqHOtau7HOk-25">
          <mxGeometry relative="1" as="geometry" />
        </mxCell>
        <mxCell id="NneCRc7rdDqHOtau7HOk-10" value="interface" style="text;html=1;align=center;verticalAlign=middle;whiteSpace=wrap;rounded=0;" vertex="1" parent="1">
          <mxGeometry x="404.00250000000005" y="-60" width="78.9375" height="51.22923588039867" as="geometry" />
        </mxCell>
        <mxCell id="NneCRc7rdDqHOtau7HOk-46" value="RepublishEvents" style="text;html=1;align=center;verticalAlign=middle;whiteSpace=wrap;rounded=0;" vertex="1" parent="1">
          <mxGeometry x="582" y="854" width="60" height="30" as="geometry" />
        </mxCell>
        <mxCell id="NneCRc7rdDqHOtau7HOk-48" style="edgeStyle=orthogonalEdgeStyle;rounded=0;orthogonalLoop=1;jettySize=auto;html=1;exitX=0.5;exitY=1;exitDx=0;exitDy=0;exitPerimeter=0;entryX=0;entryY=0.25;entryDx=0;entryDy=0;" edge="1" parent="1" source="NneCRc7rdDqHOtau7HOk-15" target="NneCRc7rdDqHOtau7HOk-47">
          <mxGeometry relative="1" as="geometry">
            <Array as="points">
              <mxPoint x="361" y="864" />
              <mxPoint x="361" y="1012" />
              <mxPoint x="-174" y="1012" />
              <mxPoint x="-174" y="3" />
            </Array>
          </mxGeometry>
        </mxCell>
        <mxCell id="NneCRc7rdDqHOtau7HOk-56" style="edgeStyle=orthogonalEdgeStyle;rounded=0;orthogonalLoop=1;jettySize=auto;html=1;exitX=0.5;exitY=1;exitDx=0;exitDy=0;entryX=0.5;entryY=0;entryDx=0;entryDy=0;" edge="1" parent="1" source="NneCRc7rdDqHOtau7HOk-54" target="NneCRc7rdDqHOtau7HOk-52">
          <mxGeometry relative="1" as="geometry" />
        </mxCell>
        <mxCell id="NneCRc7rdDqHOtau7HOk-54" value="Http (POST, PUT,DELETE, PATCH....) requests" style="text;html=1;align=center;verticalAlign=middle;whiteSpace=wrap;rounded=0;" vertex="1" parent="1">
          <mxGeometry x="188" y="-206" width="345" height="30" as="geometry" />
        </mxCell>
        <mxCell id="NneCRc7rdDqHOtau7HOk-55" value="" style="image;aspect=fixed;perimeter=ellipsePerimeter;html=1;align=center;shadow=0;dashed=0;spacingTop=3;image=img/lib/active_directory/laptop_client.svg;" vertex="1" parent="1">
          <mxGeometry x="334" y="-262" width="45" height="50" as="geometry" />
        </mxCell>
        <mxCell id="NneCRc7rdDqHOtau7HOk-43" style="edgeStyle=orthogonalEdgeStyle;rounded=0;orthogonalLoop=1;jettySize=auto;html=1;exitX=0.5;exitY=1;exitDx=0;exitDy=0;exitPerimeter=0;entryX=0;entryY=0.5;entryDx=0;entryDy=0;" edge="1" parent="1" source="NneCRc7rdDqHOtau7HOk-14" target="NneCRc7rdDqHOtau7HOk-42">
          <mxGeometry relative="1" as="geometry" />
        </mxCell>
        <mxCell id="NneCRc7rdDqHOtau7HOk-69" style="edgeStyle=orthogonalEdgeStyle;rounded=0;orthogonalLoop=1;jettySize=auto;html=1;exitX=0.5;exitY=1;exitDx=0;exitDy=0;entryX=0.5;entryY=0;entryDx=0;entryDy=0;" edge="1" parent="1" source="NneCRc7rdDqHOtau7HOk-65" target="NneCRc7rdDqHOtau7HOk-68">
          <mxGeometry relative="1" as="geometry" />
        </mxCell>
        <mxCell id="NneCRc7rdDqHOtau7HOk-65" value="Http request for reconstructing database" style="text;html=1;align=center;verticalAlign=middle;whiteSpace=wrap;rounded=0;" vertex="1" parent="1">
          <mxGeometry x="1131.07" y="-227" width="345" height="30" as="geometry" />
        </mxCell>
        <mxCell id="NneCRc7rdDqHOtau7HOk-66" value="" style="image;aspect=fixed;perimeter=ellipsePerimeter;html=1;align=center;shadow=0;dashed=0;spacingTop=3;image=img/lib/active_directory/laptop_client.svg;" vertex="1" parent="1">
          <mxGeometry x="1277.07" y="-283" width="45" height="50" as="geometry" />
        </mxCell>
        <mxCell id="NneCRc7rdDqHOtau7HOk-80" style="edgeStyle=orthogonalEdgeStyle;rounded=0;orthogonalLoop=1;jettySize=auto;html=1;exitX=0.5;exitY=1;exitDx=0;exitDy=0;entryX=0.5;entryY=0;entryDx=0;entryDy=0;" edge="1" parent="1" source="NneCRc7rdDqHOtau7HOk-68" target="NneCRc7rdDqHOtau7HOk-77">
          <mxGeometry relative="1" as="geometry" />
        </mxCell>
        <mxCell id="NneCRc7rdDqHOtau7HOk-68" value="DatabaseController" style="rounded=1;whiteSpace=wrap;html=1;" vertex="1" parent="1">
          <mxGeometry x="1209" y="1.000000000000007" width="189.13" height="60" as="geometry" />
        </mxCell>
        <mxCell id="NneCRc7rdDqHOtau7HOk-72" style="edgeStyle=orthogonalEdgeStyle;rounded=0;orthogonalLoop=1;jettySize=auto;html=1;exitX=0.5;exitY=1;exitDx=0;exitDy=0;entryX=0.5;entryY=0;entryDx=0;entryDy=0;" edge="1" parent="1" source="NneCRc7rdDqHOtau7HOk-70" target="NneCRc7rdDqHOtau7HOk-67">
          <mxGeometry relative="1" as="geometry" />
        </mxCell>
        <mxCell id="NneCRc7rdDqHOtau7HOk-70" value="Http (GET....) read requests" style="text;html=1;align=center;verticalAlign=middle;whiteSpace=wrap;rounded=0;" vertex="1" parent="1">
          <mxGeometry x="1386" y="-231" width="345" height="30" as="geometry" />
        </mxCell>
        <mxCell id="NneCRc7rdDqHOtau7HOk-71" value="" style="image;aspect=fixed;perimeter=ellipsePerimeter;html=1;align=center;shadow=0;dashed=0;spacingTop=3;image=img/lib/active_directory/laptop_client.svg;" vertex="1" parent="1">
          <mxGeometry x="1532" y="-287" width="45" height="50" as="geometry" />
        </mxCell>
        <mxCell id="NneCRc7rdDqHOtau7HOk-81" style="edgeStyle=orthogonalEdgeStyle;rounded=0;orthogonalLoop=1;jettySize=auto;html=1;exitX=0.5;exitY=1;exitDx=0;exitDy=0;entryX=0.5;entryY=0;entryDx=0;entryDy=0;" edge="1" parent="1" source="NneCRc7rdDqHOtau7HOk-67" target="NneCRc7rdDqHOtau7HOk-78">
          <mxGeometry relative="1" as="geometry" />
        </mxCell>
        <mxCell id="NneCRc7rdDqHOtau7HOk-67" value="AccountQueryController" style="rounded=1;whiteSpace=wrap;html=1;" vertex="1" parent="1">
          <mxGeometry x="1438" y="2.0000000000000036" width="189.13" height="60" as="geometry" />
        </mxCell>
        <mxCell id="NneCRc7rdDqHOtau7HOk-74" style="edgeStyle=orthogonalEdgeStyle;rounded=0;orthogonalLoop=1;jettySize=auto;html=1;exitX=0.5;exitY=1;exitDx=0;exitDy=0;entryX=0.5;entryY=0;entryDx=0;entryDy=0;entryPerimeter=0;" edge="1" parent="1" source="NneCRc7rdDqHOtau7HOk-73" target="NneCRc7rdDqHOtau7HOk-15">
          <mxGeometry relative="1" as="geometry" />
        </mxCell>
        <mxCell id="NneCRc7rdDqHOtau7HOk-75" value="AccountUpdateEvents" style="text;html=1;align=center;verticalAlign=middle;whiteSpace=wrap;rounded=0;" vertex="1" parent="1">
          <mxGeometry x="590" y="768" width="60" height="30" as="geometry" />
        </mxCell>
        <mxCell id="NneCRc7rdDqHOtau7HOk-127" value="" style="endArrow=none;html=1;rounded=0;entryX=0;entryY=0.5;entryDx=0;entryDy=0;strokeWidth=6;" edge="1" parent="1" target="NneCRc7rdDqHOtau7HOk-5">
          <mxGeometry width="50" height="50" relative="1" as="geometry">
            <mxPoint x="-119" y="281" as="sourcePoint" />
            <mxPoint x="-256" y="328" as="targetPoint" />
          </mxGeometry>
        </mxCell>
        <mxCell id="NneCRc7rdDqHOtau7HOk-130" value="" style="endArrow=none;html=1;rounded=0;strokeWidth=6;" edge="1" parent="1">
          <mxGeometry width="50" height="50" relative="1" as="geometry">
            <mxPoint x="1614" y="317" as="sourcePoint" />
            <mxPoint x="1749" y="317" as="targetPoint" />
          </mxGeometry>
        </mxCell>
      </root>
    </mxGraphModel>
  </diagram>
</mxfile>
